<?xml version="1.0" encoding="utf-8"?>
<!-- Generator: Adobe Illustrator 15.0.2, SVG Export Plug-In . SVG Version: 6.00 Build 0)  -->
<!DOCTYPE svg PUBLIC "-//W3C//DTD SVG 1.1//EN" "http://www.w3.org/Graphics/SVG/1.1/DTD/svg11.dtd">
<svg version="1.1" xmlns="http://www.w3.org/2000/svg" xmlns:xlink="http://www.w3.org/1999/xlink" x="0px" y="0px"
	 width="156.081px" height="45.952px" viewBox="0 0 156.081 45.952" enable-background="new 0 0 156.081 45.952"
	 xml:space="preserve">
<g id="Layer_2" display="none">
	<rect x="-24.998" y="-6.438" display="inline" fill="#D3D3D3" width="222.024" height="59.523"/>
</g>
<g id="Layer_1">
	<path fill="#3A3A3A" d="M0,0c1.121,1.697,2.364,3.523,3.727,5.477c1.364,1.954,2.728,3.909,4.092,5.864
		c1.363,1.954,2.688,3.848,3.976,5.681c1.288,1.834,2.447,3.478,3.478,4.932c0.364-0.514,0.878-1.257,1.545-2.227
		c0.666-0.97,1.432-2.083,2.296-3.341c0.863-1.257,1.795-2.605,2.795-4.045c1-1.44,2.007-2.887,3.023-4.341
		c1.015-1.455,3.75-2.182,3.75-2.454C27.621,7,26.492,8.598,25.296,10.34c-1.198,1.743-2.395,3.501-3.592,5.274
		c-1.197,1.772-2.348,3.492-3.454,5.159c-1.106,1.666-2.099,3.151-2.977,4.454c-0.546-0.728-1.22-1.652-2.023-2.773
		c-0.803-1.119-1.652-2.333-2.546-3.636c-0.893-1.303-1.81-2.643-2.749-4.022c-0.94-1.379-1.818-2.675-2.637-3.888
		C4.5,9.697,3.78,8.614,3.159,7.659c-0.621-0.955-1.083-1.66-1.386-2.113c0,0.272,0.015,0.568,0.045,0.886
		c0.03,0.318,0.046,0.629,0.046,0.931V33.59H0V0z"/>
	<path fill="#3A3A3A" d="M24.037,9.435h0.161c0.663,0,2.488-0.707,2.757-1.044h-2.236C24.489,8.737,24.244,9.071,24.037,9.435"/>
	<path fill="#3A3A3A" d="M53.435,11.158c-0.863-1.984-2.046-3.727-3.545-5.227c-1.5-1.5-3.251-2.682-5.25-3.546
		c-2-0.863-4.137-1.295-6.41-1.295c-2.272,0-4.401,0.432-6.386,1.295c-1.985,0.864-3.712,2.046-5.181,3.546
		c-0.736,0.75-1.363,1.585-1.944,2.459h2.236c0.322-0.404,0.661-0.794,1.026-1.163c1.318-1.333,2.863-2.387,4.636-3.16
		c1.773-0.772,3.659-1.158,5.659-1.158s3.886,0.386,5.659,1.158c1.773,0.773,3.319,1.819,4.636,3.137
		c1.319,1.318,2.364,2.872,3.137,4.659c0.772,1.788,1.159,3.682,1.159,5.682c0,2.031-0.387,3.932-1.159,5.705
		c-0.773,1.771-1.826,3.317-3.159,4.635c-1.334,1.319-2.894,2.365-4.682,3.137c-1.788,0.773-3.682,1.158-5.682,1.158
		s-3.871-0.385-5.613-1.158c-1.146-0.508-2.19-1.145-3.152-1.889v2.217c0.763,0.491,1.565,0.935,2.424,1.309
		c1.985,0.863,4.114,1.296,6.386,1.296c2.273,0,4.41-0.433,6.41-1.296c1.999-0.863,3.75-2.037,5.25-3.522
		c1.499-1.485,2.682-3.22,3.545-5.205c0.864-1.983,1.295-4.114,1.295-6.386C54.73,15.271,54.299,13.145,53.435,11.158"/>
	<path fill="#3A3A3A" d="M53.367,19.683V1.454h7.136c1.121,0,2.265,0.167,3.432,0.5c1.166,0.334,2.227,0.857,3.182,1.569
		c0.954,0.712,1.734,1.636,2.341,2.772c0.605,1.136,0.909,2.508,0.909,4.113c0,1.788-0.44,3.477-1.318,5.069
		c-0.88,1.591-2.289,2.78-4.228,3.567c0.212,0.335,0.561,0.903,1.046,1.706c0.484,0.803,1.029,1.704,1.636,2.704
		c0.606,1,1.242,2.053,1.909,3.158c0.666,1.106,1.296,2.146,1.887,3.114c0.59,0.969,1.098,1.803,1.522,2.499
		c0.424,0.698,0.712,1.152,0.864,1.364h-2.273c-0.122-0.181-0.371-0.59-0.75-1.228c-0.379-0.636-0.834-1.393-1.364-2.271
		c-0.53-0.88-1.106-1.826-1.727-2.842c-0.621-1.016-1.227-2.007-1.818-2.978c-0.591-0.969-1.136-1.871-1.636-2.704
		s-0.902-1.492-1.205-1.978c-0.424,0.061-0.856,0.114-1.295,0.159c-0.44,0.046-0.902,0.069-1.387,0.069h-4.954L53.367,19.683z
		 M55.275,17.999h5c1.606,0,2.939-0.264,4-0.796c1.06-0.529,1.901-1.188,2.522-1.976c0.621-0.788,1.053-1.629,1.296-2.523
		c0.242-0.893,0.363-1.705,0.363-2.432c0-0.969-0.189-1.878-0.568-2.727c-0.379-0.848-0.924-1.591-1.636-2.227
		c-0.712-0.637-1.568-1.144-2.568-1.523c-1-0.378-2.121-0.568-3.364-0.568h-5.045V17.999z"/>
	<polygon fill="#3A3A3A" points="90.958,1.455 90.958,3.272 82.048,3.272 82.048,33.59 80.185,33.59 80.185,3.272 71.367,3.272 
		71.367,1.455 	"/>
	<path fill="#3A3A3A" d="M109.412,3.045l-0.682,1.499c-0.939-0.392-2.068-0.749-3.386-1.068C104.026,3.159,102.73,3,101.457,3
		c-1.15,0-2.196,0.159-3.136,0.477c-0.938,0.319-1.734,0.743-2.386,1.273c-0.652,0.531-1.152,1.152-1.5,1.864
		c-0.349,0.712-0.523,1.477-0.523,2.295c0,0.971,0.242,1.789,0.728,2.455c0.484,0.667,1.129,1.243,1.932,1.727
		c0.803,0.485,1.712,0.917,2.729,1.295c1.014,0.379,2.06,0.766,3.136,1.16c1.075,0.393,2.12,0.84,3.136,1.341
		c1.016,0.5,1.924,1.106,2.728,1.817c0.803,0.713,1.446,1.562,1.932,2.546c0.484,0.986,0.727,2.189,0.727,3.614
		c0,1.393-0.25,2.652-0.749,3.771c-0.501,1.122-1.221,2.076-2.159,2.864c-0.939,0.788-2.062,1.395-3.363,1.818
		c-1.304,0.424-2.758,0.637-4.364,0.637c-1.271,0-2.432-0.122-3.477-0.364c-1.045-0.241-1.978-0.538-2.796-0.887
		c-0.818-0.347-1.522-0.696-2.113-1.045c-0.591-0.348-1.053-0.614-1.387-0.796l0.909-1.683c0.484,0.336,1.068,0.677,1.749,1.024
		c0.683,0.348,1.409,0.667,2.184,0.954c0.771,0.289,1.583,0.521,2.431,0.705c0.849,0.182,1.697,0.271,2.545,0.271
		c0.971,0,1.971-0.143,3.001-0.431c1.029-0.288,1.97-0.727,2.818-1.319c0.848-0.59,1.545-1.347,2.091-2.271
		c0.545-0.924,0.818-2.023,0.818-3.296c0-1.212-0.243-2.242-0.728-3.09c-0.484-0.85-1.13-1.569-1.932-2.16
		c-0.803-0.59-1.713-1.105-2.729-1.545c-1.015-0.439-2.06-0.856-3.136-1.25s-2.121-0.803-3.136-1.227
		c-1.016-0.425-1.925-0.924-2.728-1.501C93.905,13.47,93.26,12.789,92.776,12c-0.485-0.787-0.727-1.757-0.727-2.909
		c0-1.06,0.219-2.068,0.658-3.023c0.439-0.955,1.061-1.787,1.863-2.5c0.803-0.712,1.766-1.273,2.887-1.682
		c1.12-0.409,2.363-0.613,3.728-0.613c0.697,0,1.431,0.053,2.204,0.159c0.772,0.106,1.538,0.243,2.296,0.409
		c0.757,0.167,1.461,0.356,2.113,0.569C108.45,2.622,108.987,2.833,109.412,3.045"/>
	<path fill="#3A3A3A" d="M156.081,1.455v33.59c-1.729-2.151-3.667-4.5-5.818-7.044c-2.151-2.546-4.327-5.137-6.522-7.774
		c-2.198-2.636-4.326-5.219-6.388-7.749c-2.06-2.531-3.878-4.841-5.454-6.932l-0.863-1.182l-1.936-1.93c0,0,3.853,2.111,5.958,4.657
		c2.106,2.545,4.25,5.122,6.433,7.728c2.182,2.606,4.31,5.167,6.386,7.681c2.076,2.516,3.947,4.833,5.614,6.955l0.862,1.181
		l-0.135-1.454V1.455H156.081z"/>
	<polyline fill="#3A3A3A" points="26.955,8.39 25.496,10.048 26.026,8.39 	"/>
	<path fill="#3A3A3A" d="M53.435,11.158c-0.863-1.984-2.046-3.727-3.545-5.227c-1.5-1.5-3.251-2.682-5.25-3.546
		c-2-0.863-4.137-1.295-6.41-1.295c-2.272,0-4.401,0.432-6.386,1.295c-1.985,0.864-3.712,2.046-5.181,3.546
		c-0.736,0.75-1.363,1.585-1.944,2.459h2.236c0.322-0.404,0.661-0.794,1.026-1.163c1.318-1.333,2.863-2.387,4.636-3.16
		c1.773-0.772,3.659-1.158,5.659-1.158s3.886,0.386,5.659,1.158c1.773,0.773,3.319,1.819,4.636,3.137
		c1.319,1.318,2.364,2.872,3.137,4.659c0.772,1.788,1.159,3.682,1.159,5.682c0,2.031-0.387,3.932-1.159,5.705
		c-0.773,1.771-1.826,3.317-3.159,4.635c-1.334,1.319-2.894,2.365-4.682,3.137c-1.788,0.773-3.682,1.158-5.682,1.158
		s-3.871-0.385-5.613-1.158c-1.146-0.508-2.19-1.145-3.152-1.889v2.217c0.763,0.491,1.565,0.935,2.424,1.309
		c1.985,0.863,4.114,1.296,6.386,1.296c2.273,0,4.41-0.433,6.41-1.296c1.999-0.863,3.75-2.037,5.25-3.522
		c1.499-1.485,2.682-3.22,3.545-5.205c0.864-1.983,1.295-4.114,1.295-6.386C54.73,15.271,54.299,13.145,53.435,11.158"/>
	<path fill="#3A3A3A" d="M138.966,15.712c-0.257-2.148-0.89-4.157-1.896-6.025c-1.006-1.867-2.343-3.502-4.01-4.904
		c-1.668-1.401-3.59-2.429-5.768-3.082c-2.177-0.652-4.341-0.849-6.489-0.593c-2.149,0.258-4.144,0.894-5.981,1.908
		c-0.92,0.507-1.761,1.128-2.567,1.797c0.744,0.224,1.54,0.462,2.142,0.643c0.424-0.294,0.86-0.571,1.316-0.82
		c1.646-0.898,3.428-1.463,5.348-1.695c1.92-0.23,3.838-0.059,5.754,0.516c1.915,0.574,3.611,1.486,5.088,2.735
		c1.477,1.249,2.656,2.695,3.54,4.335c0.884,1.642,1.439,3.43,1.666,5.364c0.228,1.935,0.053,3.86-0.521,5.776
		c-0.584,1.944-1.5,3.654-2.749,5.131c-1.249,1.476-2.702,2.653-4.357,3.533c-1.657,0.881-3.451,1.434-5.386,1.659
		c-1.936,0.228-3.859,0.054-5.775-0.521c-1.915-0.574-3.597-1.481-5.044-2.722c-0.952-0.815-1.769-1.727-2.476-2.715
		c-0.236,0.785-0.432,1.437-0.637,2.124c0.59,0.689,1.229,1.345,1.945,1.948c1.653,1.398,3.568,2.424,5.745,3.076
		c2.177,0.653,4.348,0.852,6.512,0.599c2.163-0.252,4.178-0.874,6.04-1.865c1.863-0.991,3.494-2.314,4.892-3.968
		c1.396-1.651,2.422-3.567,3.074-5.745S139.223,17.862,138.966,15.712"/>
	<rect x="33.897" y="40.3" fill="#3A3A3A" width="0.522" height="5.403"/>
	<path fill="#3A3A3A" d="M42.229,40.3v5.651c-0.146-0.176-0.327-0.387-0.541-0.631c-0.215-0.245-0.447-0.506-0.696-0.783
		c-0.25-0.277-0.507-0.562-0.772-0.852c-0.265-0.29-0.521-0.574-0.768-0.851c-0.247-0.278-0.473-0.536-0.677-0.776
		c-0.205-0.239-0.372-0.447-0.503-0.624c-0.015-0.02-0.038-0.049-0.068-0.087c-0.031-0.038-0.058-0.074-0.084-0.11l0.023,0.242
		v4.224h-0.514V40.05c0.146,0.187,0.325,0.4,0.537,0.643c0.212,0.243,0.442,0.5,0.692,0.772s0.506,0.553,0.768,0.84
		c0.262,0.288,0.516,0.566,0.761,0.836c0.244,0.271,0.472,0.525,0.684,0.765s0.386,0.447,0.522,0.624
		c0.01,0.025,0.031,0.057,0.061,0.095c0.03,0.038,0.058,0.074,0.083,0.109l-0.023-0.25V40.3H42.229z"/>
	<polygon fill="#3A3A3A" points="48.387,40.3 48.387,40.792 46.949,40.792 46.949,45.704 46.427,45.704 46.427,40.792 
		45.005,40.792 45.005,40.3 	"/>
	<polygon fill="#3A3A3A" points="51.172,45.703 51.172,40.299 54.577,40.299 54.577,40.77 51.686,40.77 51.686,42.744 
		54.274,42.744 54.274,43.229 51.686,43.229 51.686,45.218 54.683,45.218 54.683,45.703 	"/>
	<path fill="#3A3A3A" d="M57.46,45.703V40.3h1.309c0.227,0,0.446,0.032,0.658,0.095c0.212,0.063,0.399,0.16,0.563,0.291
		s0.296,0.295,0.394,0.492c0.098,0.196,0.148,0.431,0.148,0.704c0,0.302-0.069,0.59-0.205,0.861
		c-0.136,0.273-0.361,0.482-0.673,0.628c0.045,0.076,0.106,0.178,0.181,0.304c0.076,0.126,0.159,0.263,0.25,0.412
		c0.091,0.148,0.186,0.304,0.284,0.466c0.098,0.161,0.193,0.314,0.284,0.461c0.09,0.146,0.174,0.28,0.249,0.401
		c0.076,0.12,0.136,0.217,0.182,0.287h-0.628c-0.041-0.061-0.094-0.144-0.159-0.25c-0.066-0.105-0.139-0.224-0.219-0.355
		c-0.081-0.131-0.167-0.271-0.258-0.416c-0.091-0.146-0.179-0.29-0.265-0.431c-0.085-0.142-0.167-0.275-0.245-0.401
		c-0.079-0.126-0.146-0.235-0.201-0.325c-0.05,0.01-0.103,0.015-0.159,0.015h-0.166h-0.81v2.164H57.46z M57.974,43.047h0.802
		c0.242,0,0.444-0.041,0.605-0.121c0.162-0.081,0.289-0.181,0.382-0.299c0.094-0.119,0.159-0.245,0.197-0.378
		c0.038-0.135,0.057-0.257,0.057-0.367c0-0.138-0.027-0.271-0.08-0.401c-0.052-0.132-0.129-0.249-0.23-0.352
		c-0.101-0.104-0.23-0.188-0.386-0.25c-0.157-0.063-0.336-0.096-0.537-0.096h-0.81V43.047z"/>
	<rect x="63.687" y="40.3" fill="#3A3A3A" width="0.522" height="5.403"/>
	<path fill="#3A3A3A" d="M67.319,43.009c0-0.378,0.071-0.735,0.215-1.071c0.144-0.335,0.341-0.629,0.59-0.881
		c0.25-0.252,0.542-0.451,0.878-0.599c0.335-0.146,0.692-0.219,1.071-0.219c0.378,0,0.736,0.073,1.074,0.219
		c0.338,0.147,0.632,0.347,0.882,0.599c0.249,0.252,0.447,0.546,0.594,0.881c0.146,0.336,0.219,0.693,0.219,1.071
		s-0.073,0.734-0.219,1.07c-0.147,0.335-0.345,0.628-0.594,0.878c-0.25,0.249-0.544,0.446-0.882,0.591
		c-0.338,0.143-0.696,0.215-1.074,0.215c-0.379,0-0.736-0.072-1.071-0.215c-0.336-0.145-0.628-0.342-0.878-0.591
		c-0.249-0.25-0.446-0.543-0.59-0.878C67.39,43.744,67.319,43.387,67.319,43.009 M67.833,43.009c0,0.312,0.059,0.606,0.178,0.882
		c0.118,0.273,0.278,0.514,0.48,0.718c0.202,0.205,0.439,0.366,0.712,0.484c0.272,0.119,0.562,0.179,0.87,0.179
		c0.307,0,0.599-0.06,0.874-0.179c0.274-0.118,0.514-0.279,0.719-0.484c0.204-0.204,0.365-0.444,0.484-0.718
		c0.118-0.275,0.178-0.569,0.178-0.882c0-0.313-0.06-0.606-0.178-0.883c-0.119-0.273-0.28-0.515-0.484-0.722
		c-0.205-0.207-0.445-0.37-0.719-0.488c-0.275-0.117-0.567-0.178-0.874-0.178c-0.313,0-0.604,0.061-0.874,0.178
		c-0.27,0.118-0.507,0.281-0.712,0.488c-0.204,0.207-0.364,0.448-0.48,0.722C67.891,42.403,67.833,42.696,67.833,43.009"/>
	<path fill="#3A3A3A" d="M75.952,45.703V40.3h1.309c0.227,0,0.446,0.032,0.658,0.095c0.212,0.063,0.398,0.16,0.562,0.291
		s0.296,0.295,0.395,0.492c0.098,0.196,0.147,0.431,0.147,0.704c0,0.302-0.068,0.59-0.205,0.861
		c-0.136,0.273-0.36,0.482-0.673,0.628c0.045,0.076,0.106,0.178,0.182,0.304s0.158,0.263,0.25,0.412
		c0.091,0.148,0.186,0.304,0.283,0.466c0.099,0.161,0.193,0.314,0.284,0.461c0.09,0.146,0.174,0.28,0.249,0.401
		c0.076,0.12,0.137,0.217,0.183,0.287h-0.628c-0.041-0.061-0.095-0.144-0.159-0.25c-0.066-0.105-0.14-0.224-0.22-0.355
		c-0.08-0.131-0.167-0.271-0.258-0.416c-0.091-0.146-0.179-0.29-0.265-0.431c-0.085-0.142-0.167-0.275-0.245-0.401
		c-0.079-0.126-0.146-0.235-0.201-0.325c-0.05,0.01-0.103,0.015-0.159,0.015h-0.166h-0.81v2.164H75.952z M76.466,43.047h0.802
		c0.242,0,0.444-0.041,0.605-0.121c0.162-0.081,0.289-0.181,0.382-0.299c0.094-0.119,0.159-0.245,0.197-0.378
		c0.038-0.135,0.057-0.257,0.057-0.367c0-0.138-0.027-0.271-0.08-0.401c-0.052-0.132-0.129-0.249-0.229-0.352
		c-0.102-0.104-0.23-0.188-0.386-0.25c-0.157-0.063-0.336-0.096-0.537-0.096h-0.81V43.047z"/>
	<path fill="#3A3A3A" d="M86.318,40.3h1.256c0.545,0,1.006,0.084,1.385,0.25c0.378,0.167,0.686,0.381,0.923,0.643
		s0.408,0.556,0.515,0.882c0.105,0.325,0.158,0.647,0.158,0.964c0,0.409-0.072,0.777-0.219,1.105
		c-0.146,0.328-0.343,0.607-0.59,0.84s-0.535,0.41-0.863,0.533c-0.328,0.124-0.676,0.186-1.044,0.186h-1.521V40.3z M87.786,45.211
		c0.312,0,0.606-0.052,0.882-0.151c0.274-0.102,0.514-0.246,0.718-0.436c0.204-0.188,0.365-0.42,0.481-0.692s0.174-0.58,0.174-0.923
		c0-0.313-0.055-0.604-0.163-0.874c-0.108-0.271-0.263-0.503-0.465-0.7c-0.202-0.196-0.444-0.353-0.727-0.465
		c-0.282-0.113-0.601-0.17-0.953-0.17h-0.894v4.411H87.786z"/>
	<polygon fill="#3A3A3A" points="93.687,45.703 93.687,40.299 97.092,40.299 97.092,40.77 94.203,40.77 94.203,42.744 96.79,42.744 
		96.79,43.229 94.203,43.229 94.203,45.218 97.198,45.218 97.198,45.703 	"/>
	<path fill="#3A3A3A" d="M103.115,40.581l-0.188,0.416c-0.178-0.071-0.372-0.132-0.586-0.182c-0.216-0.051-0.424-0.076-0.625-0.076
		c-0.182,0-0.345,0.023-0.488,0.068c-0.145,0.045-0.266,0.108-0.367,0.189c-0.101,0.08-0.178,0.173-0.23,0.275
		c-0.054,0.104-0.079,0.216-0.079,0.337c0,0.146,0.04,0.271,0.121,0.375s0.187,0.192,0.317,0.269s0.28,0.145,0.446,0.208
		c0.167,0.062,0.337,0.128,0.511,0.192c0.174,0.066,0.344,0.141,0.511,0.225c0.166,0.083,0.315,0.185,0.446,0.306
		s0.237,0.265,0.318,0.431c0.081,0.167,0.121,0.368,0.121,0.606c0,0.237-0.043,0.45-0.129,0.639
		c-0.085,0.189-0.209,0.352-0.37,0.484c-0.162,0.134-0.36,0.237-0.595,0.31c-0.234,0.074-0.501,0.11-0.799,0.11
		c-0.211,0-0.406-0.019-0.586-0.057c-0.179-0.037-0.338-0.083-0.477-0.137c-0.14-0.053-0.259-0.106-0.363-0.163
		c-0.103-0.055-0.185-0.103-0.246-0.143l0.235-0.454c0.091,0.055,0.192,0.111,0.306,0.166c0.114,0.056,0.232,0.104,0.356,0.145
		c0.124,0.039,0.251,0.072,0.382,0.098c0.131,0.026,0.259,0.038,0.386,0.038c0.136,0,0.286-0.02,0.45-0.058
		c0.164-0.036,0.314-0.099,0.454-0.185c0.139-0.086,0.255-0.196,0.348-0.329c0.093-0.134,0.141-0.296,0.141-0.488
		c0-0.236-0.07-0.429-0.208-0.574c-0.14-0.147-0.312-0.271-0.519-0.375s-0.432-0.195-0.674-0.276s-0.467-0.175-0.673-0.284
		c-0.207-0.107-0.38-0.243-0.519-0.405c-0.139-0.16-0.208-0.369-0.208-0.628c0-0.181,0.036-0.356,0.109-0.524
		c0.073-0.169,0.181-0.317,0.322-0.443c0.141-0.126,0.312-0.227,0.514-0.303c0.202-0.075,0.429-0.113,0.681-0.113
		c0.142,0,0.287,0.011,0.436,0.034c0.148,0.022,0.289,0.05,0.42,0.083s0.25,0.067,0.355,0.102
		C102.979,40.525,103.06,40.555,103.115,40.581"/>
	<rect x="106.415" y="40.3" fill="#3A3A3A" width="0.521" height="5.403"/>
	<path fill="#3A3A3A" d="M114.351,43.228v2.149c-0.207,0.121-0.44,0.216-0.704,0.284c-0.262,0.067-0.537,0.102-0.823,0.102
		c-0.425,0-0.807-0.069-1.147-0.208s-0.631-0.329-0.87-0.571c-0.24-0.242-0.425-0.527-0.556-0.855
		c-0.131-0.327-0.197-0.681-0.197-1.059c0-0.408,0.074-0.785,0.223-1.132c0.149-0.346,0.352-0.644,0.606-0.896
		c0.254-0.252,0.552-0.449,0.892-0.59c0.342-0.142,0.701-0.212,1.079-0.212c0.257,0,0.519,0.032,0.783,0.099
		c0.265,0.065,0.5,0.161,0.707,0.287l-0.257,0.424c-0.167-0.101-0.362-0.18-0.586-0.238c-0.226-0.058-0.443-0.088-0.655-0.088
		c-0.308,0-0.599,0.062-0.874,0.183s-0.517,0.285-0.726,0.491c-0.21,0.207-0.375,0.451-0.496,0.734
		c-0.121,0.282-0.182,0.582-0.182,0.9c0,0.303,0.055,0.59,0.162,0.862c0.109,0.272,0.263,0.512,0.458,0.716
		c0.197,0.203,0.435,0.365,0.711,0.483c0.278,0.119,0.585,0.178,0.925,0.178c0.166,0,0.341-0.019,0.524-0.057
		c0.185-0.037,0.36-0.094,0.526-0.17v-1.362h-1.165v-0.454H114.351z"/>
	<path fill="#3A3A3A" d="M122.183,40.3v5.651c-0.146-0.176-0.327-0.387-0.541-0.631c-0.216-0.245-0.447-0.506-0.696-0.783
		c-0.25-0.277-0.507-0.562-0.772-0.852c-0.265-0.29-0.521-0.574-0.768-0.851c-0.247-0.278-0.473-0.536-0.677-0.776
		c-0.204-0.239-0.372-0.447-0.503-0.624c-0.016-0.02-0.038-0.049-0.069-0.087c-0.03-0.038-0.058-0.074-0.083-0.11l0.023,0.242v4.224
		h-0.515V40.05c0.146,0.187,0.325,0.4,0.537,0.643c0.211,0.243,0.442,0.5,0.692,0.772s0.506,0.553,0.768,0.84
		c0.262,0.288,0.516,0.566,0.761,0.836c0.244,0.271,0.473,0.525,0.685,0.765s0.386,0.447,0.521,0.624
		c0.012,0.025,0.03,0.057,0.062,0.095c0.029,0.038,0.058,0.074,0.083,0.109l-0.023-0.25V40.3H122.183z"/>
</g>
</svg>
